{
  "accessors": [
    {
      "bufferView": 2,
      "componentType": 5126,
      "count": 30270,
      "max": [
        0.16402696073055267,
        0.10751604288816452,
        0.12847217917442322
      ],
      "min": [
        -0.16402694582939148,
        -0.15824843943119049,
        -0.029751062393188477
      ],
      "type": "VEC3"
    },
    {
      "bufferView": 2,
      "byteOffset": 363240,
      "componentType": 5126,
      "count": 30270,
      "max": [
        0.9999535083770752,
        0.99988347291946411,
        0.99999111890792847
      ],
      "min": [
        -0.99995344877243042,
        -0.99988049268722534,
        -0.99999988079071045
      ],
      "type": "VEC3"
    },
    {
      "bufferView": 3,
      "componentType": 5126,
      "count": 30270,
      "max": [
        0.99999803304672241,
        0.99999862909317017,
        0.99999189376831055,
        1
      ],
      "min": [
        -0.99999797344207764,
        -0.999958336353302,
        -1,
        -1
      ],
      "type": "VEC4"
    },
    {
      "bufferView": 1,
      "componentType": 5126,
      "count": 30270,
      "max": [
        1.00038743019104,
        0.98227173089981079
      ],
      "min": [
        0.00048938562395051122,
        0.0004198924289084971
      ],
      "type": "VEC2"
    },
    {
      "bufferView": 1,
      "byteOffset": 242160,
      "componentType": 5126,
      "count": 30270,
      "max": [
        1.3009679317474365,
        0.98227173089981079
      ],
      "min": [
        0.00048938562395051122,
        0.0004198924289084971
      ],
      "type": "VEC2"
    },
    {
      "bufferView": 1,
      "byteOffset": 484320,
      "componentType": 5126,
      "count": 30270,
      "max": [
        1.00038743019104,
        0.98227173089981079
      ],
      "min": [
        0.00048938562395051122,
        0.0004198924289084971
      ],
      "type": "VEC2"
    },
    {
      "bufferView": 1,
      "byteOffset": 726480,
      "componentType": 5126,
      "count": 30270,
      "max": [
        1.00038743019104,
        0.98227173089981079
      ],
      "min": [
        0.00048938562395051122,
        0.0004198924289084971
      ],
      "type": "VEC2"
    },
    {
      "bufferView": 0,
      "componentType": 5125,
      "count": 133536,
      "max": [
        30269
      ],
      "min": [
        0
      ],
      "type": "SCALAR"
    },
    {
      "bufferView": 2,
      "byteOffset": 726480,
      "componentType": 5126,
      "count": 11864,
      "max": [
        0.13787941634654999,
        0.019526667892932892,
        0.11727680265903473
      ],
      "min": [
        -0.13787941634654999,
        -0.08083699643611908,
        0.022484201937913895
      ],
      "type": "VEC3"
    },
    {
      "bufferView": 2,
      "byteOffset": 868848,
      "componentType": 5126,
      "count": 11864,
      "max": [
        0.99995863437652588,
        0.99990320205688477,
        0.99990284442901611
      ],
      "min": [
        -0.99995863437652588,
        -0.99982333183288574,
        -0.99989485740661621
      ],
      "type": "VEC3"
    },
    {
      "bufferView": 3,
      "byteOffset": 484320,
      "componentType": 5126,
      "count": 11864,
      "max": [
        0.99929571151733398,
        0.99978238344192505,
        0.9999731183052063,
        1
      ],
      "min": [
        -0.99929571151733398,
        -0.99999934434890747,
        -0.99986851215362549,
        -1
      ],
      "type": "VEC4"
    },
    {
      "bufferView": 1,
      "byteOffset": 968640,
      "componentType": 5126,
      "count": 11864,
      "max": [
        1,
        1
      ],
      "min": [
        0,
        0
      ],
      "type": "VEC2"
    },
    {
      "bufferView": 1,
      "byteOffset": 1063552,
      "componentType": 5126,
      "count": 11864,
      "max": [
        1,
        1
      ],
      "min": [
        0,
        0
      ],
      "type": "VEC2"
    },
    {
      "bufferView": 1,
      "byteOffset": 1158464,
      "componentType": 5126,
      "count": 11864,
      "max": [
        1,
        1
      ],
      "min": [
        0,
        0
      ],
      "type": "VEC2"
    },
    {
      "bufferView": 0,
      "byteOffset": 534144,
      "componentType": 5125,
      "count": 45000,
      "max": [
        11863
      ],
      "min": [
        0
      ],
      "type": "SCALAR"
    }
  ],
  "asset": {
    "extras": {
      "author": "makoto (https://sketchfab.com/lu87813)",
      "license": "CC-BY-4.0 (http://creativecommons.org/licenses/by/4.0/)",
      "source": "https://sketchfab.com/3d-models/air-jordan-1-a4b434181fbb48008ad460722fd53725",
      "title": "Air Jordan 1"
    },
    "generator": "Sketchfab-9.54.0",
    "version": "2.0"
  },
  "bufferViews": [
    {
      "buffer": 0,
      "byteLength": 714144,
      "byteOffset": 0,
      "name": "floatBufferViews",
      "target": 34963
    },
    {
      "buffer": 0,
      "byteLength": 1253376,
      "byteOffset": 714144,
      "byteStride": 8,
      "name": "floatBufferViews",
      "target": 34962
    },
    {
      "buffer": 0,
      "byteLength": 1011216,
      "byteOffset": 1967520,
      "byteStride": 12,
      "name": "floatBufferViews",
      "target": 34962
    },
    {
      "buffer": 0,
      "byteLength": 674144,
      "byteOffset": 2978736,
      "byteStride": 16,
      "name": "floatBufferViews",
      "target": 34962
    }
  ],
  "buffers": [
    {
      "byteLength": 3652880,
      "uri": "scene.bin"
    }
  ],
  "images": [
    {
      "uri": "textures/shoe_baseColor.png"
    },
    {
      "uri": "textures/shoe_metallicRoughness.png"
    },
    {
      "uri": "textures/shoe_normal.png"
    },
    {
      "uri": "textures/shoelace_baseColor.png"
    },
    {
      "uri": "textures/shoelace_metallicRoughness.png"
    },
    {
      "uri": "textures/shoelace_normal.png"
    }
  ],
  "materials": [
    {
      "doubleSided": true,
      "name": "shoe",
      "normalTexture": {
        "index": 2,
        "scale": 1,
        "texCoord": 0
      },
      "pbrMetallicRoughness": {
        "baseColorFactor": [
          1,
          1,
          1,
          1
        ],
        "baseColorTexture": {
          "index": 0,
          "texCoord": 0
        },
        "metallicFactor": 0,
        "metallicRoughnessTexture": {
          "index": 1,
          "texCoord": 0
        },
        "roughnessFactor": 1
      }
    },
    {
      "doubleSided": true,
      "emissiveFactor": [
        0,
        0,
        0
      ],
      "name": "shoelace",
      "normalTexture": {
        "index": 5,
        "scale": 1,
        "texCoord": 0
      },
      "pbrMetallicRoughness": {
        "baseColorFactor": [
          1,
          1,
          1,
          1
        ],
        "baseColorTexture": {
          "index": 3,
          "texCoord": 0
        },
        "metallicFactor": 0,
        "metallicRoughnessTexture": {
          "index": 4,
          "texCoord": 0
        },
        "roughnessFactor": 1
      }
    }
  ],
  "meshes": [
    {
      "name": "shoe_shoe_0",
      "primitives": [
        {
          "attributes": {
            "NORMAL": 1,
            "POSITION": 0,
            "TANGENT": 2,
            "TEXCOORD_0": 3,
            "TEXCOORD_1": 4,
            "TEXCOORD_2": 5,
            "TEXCOORD_3": 6
          },
          "indices": 7,
          "material": 0,
          "mode": 4
        }
      ]
    },
    {
      "name": "shoelace_shoelace_0",
      "primitives": [
        {
          "attributes": {
            "NORMAL": 9,
            "POSITION": 8,
            "TANGENT": 10,
            "TEXCOORD_0": 11,
            "TEXCOORD_1": 12,
            "TEXCOORD_2": 13
          },
          "indices": 14,
          "material": 1,
          "mode": 4
        }
      ]
    }
  ],
  "nodes": [
    {
      "children": [
        1
      ],
      "name": "RootNode (gltf orientation matrix)",
      "rotation": [
        -0.70710678118654746,
        -0,
        -0,
        0.70710678118654757
      ]
    },
    {
      "children": [
        2
      ],
      "matrix": [
        1,
        0,
        0,
        0,
        0,
        1,
        0,
        0,
        0,
        0,
        1,
        0,
        0,
        -1.0541000392549904e-06,
        -7.309000125133025e-07,
        1
      ],
      "name": "RootNode (model correction matrix)"
    },
    {
      "children": [
        3
      ],
      "matrix": [
        1,
        0,
        0,
        0,
        0,
        0,
        1,
        0,
        0,
        -1,
        0,
        0,
        0,
        0,
        0,
        1
      ],
      "name": "d8deb8ca54d7411c8d14a56540e715c4.fbx"
    },
    {
      "children": [
        4,
        6
      ],
      "name": "RootNode"
    },
    {
      "children": [
        5
      ],
      "matrix": [
        100,
        0,
        0,
        0,
        0,
        -1.6292067939183141e-05,
        -99.999999999998678,
        0,
        0,
        99.999999999998678,
        -1.6292067939183141e-05,
        0,
        0,
        0,
        0,
        1
      ],
      "name": "shoe"
    },
    {
      "mesh": 0,
      "name": "shoe_shoe_0"
    },
    {
      "children": [
        7
      ],
      "matrix": [
        100,
        0,
        0,
        0,
        0,
        -1.6292067939183141e-05,
        -99.999999999998678,
        0,
        0,
        99.999999999998678,
        -1.6292067939183141e-05,
        0,
        0,
        0,
        0,
        1
      ],
      "name": "shoelace"
    },
    {
      "mesh": 1,
      "name": "shoelace_shoelace_0"
    }
  ],
  "samplers": [
    {
      "magFilter": 9729,
      "minFilter": 9987,
      "wrapS": 10497,
      "wrapT": 10497
    }
  ],
  "scene": 0,
  "scenes": [
    {
      "name": "OSG_Scene",
      "nodes": [
        0
      ]
    }
  ],
  "textures": [
    {
      "sampler": 0,
      "source": 0
    },
    {
      "sampler": 0,
      "source": 1
    },
    {
      "sampler": 0,
      "source": 2
    },
    {
      "sampler": 0,
      "source": 3
    },
    {
      "sampler": 0,
      "source": 4
    },
    {
      "sampler": 0,
      "source": 5
    }
  ]
}

